HIERARCHY
ROOT Hips
{
	OFFSET 0.000000 100.481300 0.000000
	CHANNELS 6 Xposition Yposition Zposition Xrotation Yrotation Zrotation 
	JOINT Spine
	{
		OFFSET -0.279200 12.230698 -2.892100
		CHANNELS 3 Xrotation Yrotation Zrotation
		JOINT Spine1
		{
			OFFSET -0.232667 10.192268 -1.242267
			CHANNELS 3 Xrotation Yrotation Zrotation
			JOINT Spine1_split
			{
				OFFSET -0.232667 10.192268 -1.242267
				CHANNELS 3 Xrotation Yrotation Zrotation
				JOINT Spine2
				{
					OFFSET -0.232667 10.192268 -1.242267
					CHANNELS 3 Xrotation Yrotation Zrotation
					JOINT Neck
					{
						OFFSET -0.418800 17.814194 8.416900
						CHANNELS 3 Xrotation Yrotation Zrotation
						JOINT Head
						{
							OFFSET 0.000000 7.031097 3.806800
							CHANNELS 3 Xrotation Yrotation Zrotation
							JOINT HeadTop_End
							{
								OFFSET 0.000000 24.646606 12.978600
								CHANNELS 3 Xrotation Yrotation Zrotation
								End Site
								{
									OFFSET 0.000000 0.000000 0.000000
								}
							}
						}
					}
					JOINT LeftShoulder
					{
						OFFSET 8.476499 7.247704 -3.868750
						CHANNELS 3 Xrotation Yrotation Zrotation
						JOINT LeftShoulder_split
						{
							OFFSET 8.476499 7.247704 -3.868750
							CHANNELS 3 Xrotation Yrotation Zrotation
							JOINT LeftArm
							{
								OFFSET 9.308998 -2.777710 0.208600
								CHANNELS 3 Xrotation Yrotation Zrotation
								JOINT LeftForeArm
								{
									OFFSET 29.972298 0.000000 0.000000
									CHANNELS 3 Xrotation Yrotation Zrotation
									JOINT LeftHand
									{
										OFFSET 26.026505 0.000000 0.000000
										CHANNELS 3 Xrotation Yrotation Zrotation
										JOINT LeftHandThumb1
										{
											OFFSET 12.240501 -7.147949 9.207150
											CHANNELS 3 Xrotation Yrotation Zrotation
											JOINT LeftHandThumb2
											{
												OFFSET 4.138618 -2.389435 2.389433
												CHANNELS 3 Xrotation Yrotation Zrotation
												JOINT LeftHandThumb3
												{
													OFFSET 2.726913 -1.574387 1.574386
													CHANNELS 3 Xrotation Yrotation Zrotation
													JOINT LeftHandThumb4
													{
														OFFSET 3.941010 -2.275345 2.275342
														CHANNELS 3 Xrotation Yrotation Zrotation
														End Site
														{
															OFFSET 0.000000 0.000000 0.000000
														}
													}
												}
											}
										}
										JOINT LeftHandIndex1
										{
											OFFSET 24.424698 -1.985611 5.953459
											CHANNELS 3 Xrotation Yrotation Zrotation
											JOINT LeftHandIndex2
											{
												OFFSET 6.426697 0.000000 0.000000
												CHANNELS 3 Xrotation Yrotation Zrotation
												JOINT LeftHandIndex3
												{
													OFFSET 5.337898 0.000000 0.000000
													CHANNELS 3 Xrotation Yrotation Zrotation
													JOINT LeftHandIndex4
													{
														OFFSET 4.409401 0.000000 0.000000
														CHANNELS 3 Xrotation Yrotation Zrotation
														End Site
														{
															OFFSET 0.000000 0.000000 0.000000
														}
													}
												}
											}
										}
										JOINT LeftHandMiddle1
										{
											OFFSET 23.810104 0.000000 0.000000
											CHANNELS 3 Xrotation Yrotation Zrotation
											JOINT LeftHandMiddle2
											{
												OFFSET 7.176498 0.000000 0.000000
												CHANNELS 3 Xrotation Yrotation Zrotation
												JOINT LeftHandMiddle3
												{
													OFFSET 6.774902 0.000000 0.000000
													CHANNELS 3 Xrotation Yrotation Zrotation
													JOINT LeftHandMiddle4
													{
														OFFSET 5.403328 0.000000 0.000000
														CHANNELS 3 Xrotation Yrotation Zrotation
														End Site
														{
															OFFSET 0.000000 0.000000 0.000000
														}
													}
												}
											}
										}
										JOINT LeftHandRing1
										{
											OFFSET 22.908401 -0.839279 -6.020567
											CHANNELS 3 Xrotation Yrotation Zrotation
											JOINT LeftHandRing2
											{
												OFFSET 6.337502 0.000000 0.000000
												CHANNELS 3 Xrotation Yrotation Zrotation
												JOINT LeftHandRing3
												{
													OFFSET 5.779297 0.000000 0.000000
													CHANNELS 3 Xrotation Yrotation Zrotation
													JOINT LeftHandRing4
													{
														OFFSET 4.965698 0.000000 0.000000
														CHANNELS 3 Xrotation Yrotation Zrotation
														End Site
														{
															OFFSET 0.000000 0.000000 0.000000
														}
													}
												}
											}
										}
										JOINT LeftHandPinky1
										{
											OFFSET 20.037003 -1.530319 -10.950146
											CHANNELS 3 Xrotation Yrotation Zrotation
											JOINT LeftHandPinky2
											{
												OFFSET 5.254700 0.000000 0.000000
												CHANNELS 3 Xrotation Yrotation Zrotation
												JOINT LeftHandPinky3
												{
													OFFSET 4.810204 0.000000 0.000000
													CHANNELS 3 Xrotation Yrotation Zrotation
													JOINT LeftHandPinky4
													{
														OFFSET 3.647202 0.000000 0.000000
														CHANNELS 3 Xrotation Yrotation Zrotation
														End Site
														{
															OFFSET 0.000000 0.000000 0.000000
														}
													}
												}
											}
										}
									}
								}
							}
						}
					}
					JOINT RightShoulder
					{
						OFFSET -7.570500 7.247704 -3.868750
						CHANNELS 3 Xrotation Yrotation Zrotation
						JOINT RightShoulder_split
						{
							OFFSET -7.570500 7.247704 -3.868750
							CHANNELS 3 Xrotation Yrotation Zrotation
							JOINT RightArm
							{
								OFFSET -9.308998 -2.777710 0.208500
								CHANNELS 3 Xrotation Yrotation Zrotation
								JOINT RightForeArm
								{
									OFFSET -29.972300 0.000000 0.000000
									CHANNELS 3 Xrotation Yrotation Zrotation
									JOINT RightHand
									{
										OFFSET -26.026505 0.000000 0.000000
										CHANNELS 3 Xrotation Yrotation Zrotation
										JOINT RightHandThumb1
										{
											OFFSET -12.240601 -7.148026 9.207092
											CHANNELS 3 Xrotation Yrotation Zrotation
											JOINT RightHandThumb2
											{
												OFFSET -4.138618 -2.389435 2.389433
												CHANNELS 3 Xrotation Yrotation Zrotation
												JOINT RightHandThumb3
												{
													OFFSET -2.726974 -1.574417 1.574421
													CHANNELS 3 Xrotation Yrotation Zrotation
													JOINT RightHandThumb4
													{
														OFFSET -3.941010 -2.275345 2.275343
														CHANNELS 3 Xrotation Yrotation Zrotation
														End Site
														{
															OFFSET 0.000000 0.000000 0.000000
														}
													}
												}
											}
										}
										JOINT RightHandIndex1
										{
											OFFSET -24.424698 -1.985657 5.953444
											CHANNELS 3 Xrotation Yrotation Zrotation
											JOINT RightHandIndex2
											{
												OFFSET -6.426697 0.000000 0.000000
												CHANNELS 3 Xrotation Yrotation Zrotation
												JOINT RightHandIndex3
												{
													OFFSET -5.337898 0.000000 0.000000
													CHANNELS 3 Xrotation Yrotation Zrotation
													JOINT RightHandIndex4
													{
														OFFSET -4.409401 0.000000 0.000000
														CHANNELS 3 Xrotation Yrotation Zrotation
														End Site
														{
															OFFSET 0.000000 0.000000 0.000000
														}
													}
												}
											}
										}
										JOINT RightHandMiddle1
										{
											OFFSET -23.810097 0.000000 0.000000
											CHANNELS 3 Xrotation Yrotation Zrotation
											JOINT RightHandMiddle2
											{
												OFFSET -7.176498 0.000000 0.000000
												CHANNELS 3 Xrotation Yrotation Zrotation
												JOINT RightHandMiddle3
												{
													OFFSET -6.774902 0.000000 0.000000
													CHANNELS 3 Xrotation Yrotation Zrotation
													JOINT RightHandMiddle4
													{
														OFFSET -5.403328 0.000000 0.000000
														CHANNELS 3 Xrotation Yrotation Zrotation
														End Site
														{
															OFFSET 0.000000 0.000000 0.000000
														}
													}
												}
											}
										}
										JOINT RightHandRing1
										{
											OFFSET -22.908302 -0.839325 -6.020576
											CHANNELS 3 Xrotation Yrotation Zrotation
											JOINT RightHandRing2
											{
												OFFSET -6.337502 0.000000 0.000000
												CHANNELS 3 Xrotation Yrotation Zrotation
												JOINT RightHandRing3
												{
													OFFSET -5.779297 0.000000 0.000000
													CHANNELS 3 Xrotation Yrotation Zrotation
													JOINT RightHandRing4
													{
														OFFSET -4.965698 0.000000 0.000000
														CHANNELS 3 Xrotation Yrotation Zrotation
														End Site
														{
															OFFSET 0.000000 0.000000 0.000000
														}
													}
												}
											}
										}
										JOINT RightHandPinky1
										{
											OFFSET -20.037003 -1.530334 -10.950259
											CHANNELS 3 Xrotation Yrotation Zrotation
											JOINT RightHandPinky2
											{
												OFFSET -5.254700 0.000000 0.000000
												CHANNELS 3 Xrotation Yrotation Zrotation
												JOINT RightHandPinky3
												{
													OFFSET -4.810204 0.000000 0.000000
													CHANNELS 3 Xrotation Yrotation Zrotation
													JOINT RightHandPinky4
													{
														OFFSET -3.647202 0.000000 0.000000
														CHANNELS 3 Xrotation Yrotation Zrotation
														End Site
														{
															OFFSET 0.000000 0.000000 0.000000
														}
													}
												}
											}
										}
									}
								}
							}
						}
					}
				}
			}
		}
	}
	JOINT LeftUpLeg
	{
		OFFSET 15.427100 -6.655098 0.678600
		CHANNELS 3 Xrotation Yrotation Zrotation
		JOINT LeftLeg
		{
			OFFSET 4.081073 -39.591068 13.024000
			CHANNELS 3 Xrotation Yrotation Zrotation
			JOINT LeftFoot
			{
				OFFSET -4.081074 -37.707932 -15.979700
				CHANNELS 3 Xrotation Yrotation Zrotation
				JOINT LeftToeBase
				{
					OFFSET 5.346399 -15.068900 20.645000
					CHANNELS 3 Xrotation Yrotation Zrotation
					JOINT LeftToe_End
					{
						OFFSET 2.754700 0.931300 11.300900
						CHANNELS 3 Xrotation Yrotation Zrotation
						End Site
						{
							OFFSET 0.000000 0.000000 0.000000
						}
					}
				}
			}
		}
	}
	JOINT RightUpLeg
	{
		OFFSET -15.569500 -6.655098 0.678600
		CHANNELS 3 Xrotation Yrotation Zrotation
		JOINT RightLeg
		{
			OFFSET -4.081825 -39.591045 13.023800
			CHANNELS 3 Xrotation Yrotation Zrotation
			JOINT RightFoot
			{
				OFFSET 4.081824 -37.707954 -15.979600
				CHANNELS 3 Xrotation Yrotation Zrotation
				JOINT RightToeBase
				{
					OFFSET -5.346400 -15.068900 20.645000
					CHANNELS 3 Xrotation Yrotation Zrotation
					JOINT RightToe_End
					{
						OFFSET -2.754700 0.931300 11.300900
						CHANNELS 3 Xrotation Yrotation Zrotation
						End Site
						{
							OFFSET 0.000000 0.000000 0.000000
						}
					}
				}
			}
		}
	}
}
MOTION
Frames: 4
Frame Time: 0.016667
2.910449 72.423447 2.095075 0.945036 -43.554651 4.706439 9.192042 13.327724 -3.931784 1.751726 3.638386 -1.540308 0.000000 0.000000 0.000000 1.716105 3.636633 -1.514276 -4.807232 12.764789 2.112759 4.999613 12.340594 0.595641 -0.000001 0.000000 0.000000 0.177120 3.280463 -2.501102 0.000000 0.000000 0.000000 0.608045 -3.857610 -44.118856 -0.000028 -132.706395 -0.000017 -9.689295 -8.659015 15.986220 -6.141222 -11.690793 -6.761692 9.914122 42.595512 3.409853 -0.422804 8.108097 27.509121 -0.000003 -0.000000 0.000000 0.255320 3.378222 -45.814354 5.654088 5.847759 -88.067455 2.162144 4.544813 -50.866365 -0.000002 0.000000 -0.000001 -0.461473 3.841601 -39.722693 6.450759 5.820347 -95.892871 2.182887 4.561561 -51.127743 0.000001 -0.000005 0.000002 0.469721 4.966835 -39.799444 8.181046 5.368619 -113.503018 3.200491 5.218119 -63.022989 0.000002 -0.000000 0.000001 -3.762427 9.063686 -45.253825 5.342530 5.829003 -85.005304 8.716832 5.103325 -119.369167 -0.000001 -0.000001 -0.000001 0.028594 13.490903 -3.638380 0.000000 0.000000 0.000000 -50.086689 20.453912 65.076772 0.000019 105.790949 -0.000011 -20.892261 14.931907 -20.970359 -7.341104 13.749652 7.412324 9.855811 -44.489089 -3.903239 -0.115794 -14.513076 -28.973857 -0.000000 -0.000001 0.000001 -0.124371 -2.384788 45.108881 4.500586 -4.654543 88.071164 1.723225 -3.618378 50.920102 -0.000001 0.000001 0.000000 -0.761623 -2.932904 39.031055 5.133882 -4.632765 95.881642 1.739752 -3.631706 51.181384 -0.000000 0.000000 0.000000 0.154759 -4.068818 39.122675 6.509730 -4.273601 113.462877 2.549587 -4.153925 63.067337 0.000001 0.000001 0.000001 -4.198880 -8.025515 44.637783 4.252918 -4.639637 85.014825 6.935959 -4.062622 119.322285 -0.000001 0.000002 -0.000001 -38.154017 9.884980 22.549366 58.241576 -10.352080 -1.430520 -22.137919 -9.400001 -10.864682 -1.594204 0.000012 -0.000002 -0.000000 0.000002 0.000000 -20.788304 -6.476551 -37.708935 55.093153 -2.936088 -3.806563 -25.111336 -10.887464 28.760151 -1.421719 -0.000014 0.000001 -0.000000 -0.000001 -0.000000 
3.238902 72.604172 2.243010 1.542538 -47.439683 5.194976 9.211226 13.559444 -3.927605 1.781059 3.670395 -1.552473 0.000000 0.000000 0.000000 1.745709 3.669437 -1.526469 -4.852180 13.507684 1.989613 5.455245 14.636201 -0.622792 0.000000 0.000000 -0.000000 0.097888 3.823973 -2.193747 0.000000 0.000000 0.000000 0.257139 0.811131 -40.840266 -0.000003 -133.311892 0.000002 -10.152839 -8.537421 13.607067 -6.141222 -11.690793 -6.761688 9.914115 42.595519 3.409859 -0.422799 8.108097 27.509125 0.000003 -0.000000 0.000000 0.255320 3.378226 -45.814351 5.654086 5.847759 -88.067455 2.162142 4.544815 -50.866365 0.000001 0.000002 0.000003 -0.461471 3.841601 -39.722693 6.450756 5.820348 -95.892871 2.182887 4.561568 -51.127733 0.000003 0.000000 -0.000001 0.469723 4.966836 -39.799447 8.181052 5.368618 -113.503018 3.200494 5.218121 -63.022989 0.000001 -0.000000 -0.000001 -3.762427 9.063687 -45.253825 5.342530 5.829001 -85.005304 8.716833 5.103334 -119.369167 -0.000001 -0.000000 -0.000002 0.200215 11.353365 -3.117912 0.000000 0.000000 0.000000 -51.036960 23.059967 69.349035 0.000202 106.457712 -0.000189 -20.423613 15.369066 -21.891180 -7.341104 13.749657 7.412325 9.855810 -44.489089 -3.903239 -0.115794 -14.513076 -28.973857 -0.000000 0.000000 -0.000001 -0.124371 -2.384786 45.108881 4.500587 -4.654543 88.071171 1.723220 -3.618379 50.920105 -0.000000 -0.000000 0.000000 -0.761623 -2.932905 39.031055 5.133885 -4.632765 95.881642 1.739751 -3.631705 51.181387 -0.000000 -0.000001 0.000000 0.154759 -4.068819 39.122671 6.509730 -4.273600 113.462877 2.549583 -4.153923 63.067330 -0.000002 0.000000 -0.000001 -4.198881 -8.025516 44.637783 4.252919 -4.639635 85.014825 6.935961 -4.062622 119.322285 0.000000 0.000001 -0.000000 -36.341230 10.869593 23.381606 57.843301 -10.592546 -2.303795 -23.367795 -6.633953 -10.570694 -1.594204 0.000013 -0.000002 -0.000000 -0.000004 -0.000000 -24.125454 -4.663441 -36.289553 55.270605 -1.416288 -5.771010 -23.992250 -10.120712 27.872916 -1.421719 -0.000014 0.000001 -0.000000 -0.000000 -0.000000 
3.555962 72.763672 2.369008 2.381978 -51.350141 5.696676 9.100371 13.472183 -3.876367 1.771372 3.585713 -1.596582 0.000000 0.000000 0.000000 1.740267 3.584196 -1.570212 -4.939230 14.320792 1.963289 5.901587 17.485826 -1.956387 -0.000000 0.000000 0.000000 -0.027860 4.558143 -1.523012 0.000000 0.000000 0.000000 -2.682214 4.894931 -37.047141 0.000001 -131.773597 0.000003 -12.029689 -7.006937 9.958198 -6.141222 -11.690796 -6.761686 9.914124 42.595508 3.409854 -0.422801 8.108098 27.509126 -0.000003 0.000001 0.000000 0.255319 3.378221 -45.814354 5.654089 5.847759 -88.067455 2.162144 4.544813 -50.866359 -0.000002 0.000001 -0.000001 -0.461471 3.841598 -39.722693 6.450759 5.820349 -95.892871 2.182888 4.561563 -51.127740 -0.000002 0.000000 -0.000002 0.469720 4.966832 -39.799451 8.181052 5.368618 -113.503011 3.200491 5.218120 -63.022989 0.000000 0.000001 -0.000001 -3.762425 9.063682 -45.253825 5.342531 5.829001 -85.005304 8.716833 5.103332 -119.369167 -0.000002 -0.000002 -0.000003 0.408006 9.523257 -2.592240 0.000000 0.000000 0.000000 -52.008660 26.162968 72.996165 -0.000012 106.923791 0.000019 -20.167216 15.760636 -22.777342 -7.341104 13.749653 7.412324 9.855810 -44.489089 -3.903239 -0.115795 -14.513075 -28.973857 0.000000 -0.000003 0.000001 -0.124372 -2.384787 45.108878 4.500587 -4.654540 88.071171 1.723225 -3.618377 50.920105 -0.000001 -0.000001 -0.000000 -0.761623 -2.932904 39.031058 5.133883 -4.632765 95.881635 1.739749 -3.631707 51.181387 0.000000 0.000001 0.000001 0.154759 -4.068818 39.122671 6.509733 -4.273602 113.462877 2.549585 -4.153927 63.067337 -0.000000 -0.000000 0.000004 -4.198880 -8.025518 44.637779 4.252921 -4.639637 85.014818 6.935960 -4.062620 119.322285 0.000001 0.000001 -0.000001 -34.607121 11.583333 24.139087 57.511361 -10.784196 -3.115197 -24.677774 -3.621663 -10.331629 -1.594204 0.000013 -0.000002 -0.000000 -0.000000 0.000000 -27.680559 -3.292409 -34.198699 55.443521 0.127239 -8.031484 -22.751809 -9.346409 26.995191 -1.421719 -0.000014 0.000000 -0.000000 0.000000 0.000000 
3.819490 72.778984 2.361332 3.218374 -54.919632 6.110465 8.991018 13.019596 -3.818847 1.764131 3.368154 -1.656708 0.000000 0.000000 0.000000 1.742111 3.364811 -1.629984 -5.053197 15.121578 2.024824 6.249758 20.624680 -3.332859 -0.000000 0.000000 0.000001 -0.179992 5.325315 -0.579758 0.000000 0.000000 0.000000 -7.789436 6.885918 -33.013142 0.000022 -127.270262 0.000020 -14.645194 -4.440906 5.722878 -6.141222 -11.690795 -6.761693 9.914123 42.595512 3.409850 -0.422801 8.108097 27.509121 -0.000000 0.000001 0.000000 0.255321 3.378221 -45.814351 5.654091 5.847757 -88.067448 2.162145 4.544815 -50.866359 0.000002 -0.000001 -0.000002 -0.461469 3.841597 -39.722693 6.450762 5.820347 -95.892871 2.182885 4.561563 -51.127743 0.000001 -0.000002 0.000003 0.469724 4.966829 -39.799451 8.181048 5.368617 -113.503018 3.200493 5.218114 -63.022989 0.000002 -0.000001 0.000001 -3.762427 9.063685 -45.253825 5.342531 5.829002 -85.005304 8.716833 5.103337 -119.369167 0.000001 0.000002 0.000001 0.645880 8.044683 -2.081282 0.000000 0.000000 0.000000 -52.775663 29.458534 75.713870 -0.000065 107.580725 0.000070 -20.173245 16.137930 -23.571480 -7.341103 13.749653 7.412325 9.855810 -44.489096 -3.903239 -0.115794 -14.513078 -28.973861 -0.000000 0.000002 -0.000001 -0.124371 -2.384787 45.108885 4.500591 -4.654540 88.071171 1.723226 -3.618379 50.920105 -0.000000 0.000002 0.000000 -0.761623 -2.932906 39.031055 5.133887 -4.632764 95.881642 1.739750 -3.631705 51.181391 -0.000000 -0.000001 -0.000000 0.154759 -4.068818 39.122671 6.509731 -4.273600 113.462870 2.549584 -4.153925 63.067337 0.000000 0.000000 -0.000003 -4.198880 -8.025517 44.637783 4.252919 -4.639637 85.014818 6.935965 -4.062623 119.322285 -0.000001 0.000000 -0.000001 -33.091023 11.892078 24.723109 57.428838 -11.003259 -3.704280 -25.960880 -0.501638 -10.199801 -1.594204 0.000017 -0.000002 -0.000000 -0.000000 0.000000 -30.667327 -1.846193 -32.824086 55.702614 1.819858 -8.331348 -21.687123 -8.146046 25.499470 -1.421719 -0.000014 0.000001 0.000000 0.000000 0.000000 
